# xmcd
# 
# Track frame offsets:
#     150
#     14825
#     30555
#     44783
#     59405
#     72146
#     90302
#     102837
#     113210
#     127539
#     146991
#     162195
# 
# Disc length: 2484
# 
# Revision: 1
# Processed by: cddbd v1.5.2PL0 Copyright (c) Steve Scherf et al.
# Submitted via: fre:ac v1.1beta1pre5
# 
DISCID=a209b20c
DTITLE=Συλλογικός δίσκος - Ζωή με τ' όνειρο δεμένη-Ν. Γκάτσος CD3
DYEAR=2009
DGENRE=Ποικίλη
TTITLE0=Κόκοτας Σταμάτης - Βρέχει ο Θεός
TTITLE1=Μοσχολιού Βίκυ - Πού νά 'βρω ταχυδρόμο
TTITLE2=Κόκοτας Σταμάτης - Άπονη καρδιά
TTITLE3=Μπιθικώτσης Γρηγόρης - Αύριο πάλι
TTITLE4=Κόκοτας Σταμάτης - Με γνώρισες φτωχόπαιδο
TTITLE5=Μπιθικώτσης Γρηγόρης - Είχαμε περηφάνια
TTITLE6=Μοσχολιού Βίκυ - Τη νύχτα που σ' αντάμωσα
TTITLE7=Πρωτοψάλτη Άλκηστις - Μην κάνεις πείσματα
TTITLE8=Μητσιάς Μανώλης-Τσανακλίδου Τάνια - Μακρινή της αγάπης ώρα
TTITLE9=Μητσιάς Μανώλης - 1922
TTITLE10=Μητσιάς Μανώλης - Οι ρήτορες
TTITLE11=Μητσιάς Μανώλης - Ελλάδα, Ελλάδα
EXTD=
EXTT0=
EXTT1=
EXTT2=
EXTT3=
EXTT4=
EXTT5=
EXTT6=
EXTT7=
EXTT8=
EXTT9=
EXTT10=
EXTT11=
PLAYORDER=
